<svg xmlns="http://www.w3.org/2000/svg" viewBox="0 0 120 150" width="120" height="150" role="img" aria-label="Phoenix flame">
  <defs>
    <radialGradient id="glow-phoenix" cx="50%" cy="60%" r="55%">
      <stop offset="0%" stop-color="#FFD60A" stop-opacity="1.15"/>
      <stop offset="62%" stop-color="#FFD60A" stop-opacity="0"/>
    </radialGradient>
    <linearGradient id="body-phoenix" x1="0" y1="1" x2="0" y2="0">
      <stop offset="0%" stop-color="#FFD60A"/>
      <stop offset="55%" stop-color="#FFD60A"/>
      <stop offset="100%" stop-color="rgb(255, 241, 169)" stop-opacity="0.95"/>
    </linearGradient>
    <linearGradient id="core-phoenix" x1="0" y1="1" x2="0" y2="0">
      <stop offset="0%" stop-color="rgb(255, 241, 169)" stop-opacity="0.6"/>
      <stop offset="100%" stop-color="#FFFFFF" stop-opacity="0.9"/>
    </linearGradient></defs><ellipse cx="60" cy="95" rx="58" ry="64" fill="url(#glow-phoenix)"/><g transform="translate(10 6)">
       <g transform="translate(50 128) scale(1.1) translate(-50 -128)"><path d="M50 6 C 53 20, 54 30, 57 40 C 68 26, 84 20, 96 22 C 86 34, 76 44, 68 56 C 64 74, 61 86, 60 96 C 66 106, 70 114, 70 120 C 62 118, 55 120, 50 134 C 45 120, 38 118, 30 120 C 30 114, 34 106, 40 96 C 39 86, 36 74, 32 56 C 24 44, 14 34, 4 22 C 16 20, 32 26, 43 40 C 46 30, 47 20, 50 6 Z" fill="url(#body-phoenix)"/>
            <path d="M50 6 C 53 20, 54 30, 57 40 C 68 26, 84 20, 96 22 C 86 34, 76 44, 68 56 C 64 74, 61 86, 60 96 C 66 106, 70 114, 70 120 C 62 118, 55 120, 50 134 C 45 120, 38 118, 30 120 C 30 114, 34 106, 40 96 C 39 86, 36 74, 32 56 C 24 44, 14 34, 4 22 C 16 20, 32 26, 43 40 C 46 30, 47 20, 50 6 Z" fill="url(#core-phoenix)" opacity="0.42" transform="translate(50 84) scale(0.58) translate(-50 -84)"/></g>
     </g>
</svg>
