<svg xmlns="http://www.w3.org/2000/svg" viewBox="0 0 120 150" width="120" height="150" role="img" aria-label="Phoenix flame">
  <defs>
    <radialGradient id="glow-phoenix" cx="50%" cy="60%" r="55%">
      <stop offset="0%" stop-color="#FFD60A" stop-opacity="1.15"/>
      <stop offset="62%" stop-color="#FFD60A" stop-opacity="0"/>
    </radialGradient>
    <linearGradient id="body-phoenix" x1="0" y1="1" x2="0" y2="0">
      <stop offset="0%" stop-color="#FFD60A"/>
      <stop offset="55%" stop-color="#FFD60A"/>
      <stop offset="100%" stop-color="rgb(255, 241, 169)" stop-opacity="0.95"/>
    </linearGradient>
    <linearGradient id="core-phoenix" x1="0" y1="1" x2="0" y2="0">
      <stop offset="0%" stop-color="rgb(255, 241, 169)" stop-opacity="0.6"/>
      <stop offset="100%" stop-color="#FFFFFF" stop-opacity="0.9"/>
    </linearGradient></defs><ellipse cx="60" cy="95" rx="58" ry="64" fill="url(#glow-phoenix)"/><g transform="translate(10 6) scale(1)">
       <g transform="translate(50 128) scale(1.4) translate(-50 -128)"><path d="M50 8 C 54 26, 58 34, 66 40 C 82 30, 96 34, 100 44 C 88 48, 78 56, 72 68 C 84 72, 92 82, 92 92 C 80 86, 68 88, 60 96 C 62 112, 56 126, 50 134 C 44 126, 38 112, 40 96 C 32 88, 20 86, 8 92 C 8 82, 16 72, 28 68 C 22 56, 12 48, 0 44 C 4 34, 18 30, 34 40 C 42 34, 46 26, 50 8 Z" fill="url(#body-phoenix)"/>
            <path d="M50 8 C 54 26, 58 34, 66 40 C 82 30, 96 34, 100 44 C 88 48, 78 56, 72 68 C 84 72, 92 82, 92 92 C 80 86, 68 88, 60 96 C 62 112, 56 126, 50 134 C 44 126, 38 112, 40 96 C 32 88, 20 86, 8 92 C 8 82, 16 72, 28 68 C 22 56, 12 48, 0 44 C 4 34, 18 30, 34 40 C 42 34, 46 26, 50 8 Z" fill="url(#core-phoenix)" transform="translate(41 48) scale(0.55)" opacity="0.5"/></g>
     </g>
</svg>
