<svg xmlns="http://www.w3.org/2000/svg" viewBox="0 0 750 190" width="750" height="190" role="img" aria-label="The five flame stages: Spark, Flame, Blaze, Beacon, Phoenix">
  <rect width="750" height="190" rx="16" fill="#0D0B10"/>
  <g transform="translate(0 0)">
      <g transform="translate(15 8)"><defs>
    <radialGradient id="glow-s0" cx="50%" cy="60%" r="55%">
      <stop offset="0%" stop-color="#FF6B35" stop-opacity="0.35"/>
      <stop offset="62%" stop-color="#FF6B35" stop-opacity="0"/>
    </radialGradient>
    <linearGradient id="body-s0" x1="0" y1="1" x2="0" y2="0">
      <stop offset="0%" stop-color="#FF6B35"/>
      <stop offset="55%" stop-color="#FF6B35"/>
      <stop offset="100%" stop-color="rgb(255, 203, 184)" stop-opacity="0.95"/>
    </linearGradient>
    <linearGradient id="core-s0" x1="0" y1="1" x2="0" y2="0">
      <stop offset="0%" stop-color="rgb(255, 203, 184)" stop-opacity="0.6"/>
      <stop offset="100%" stop-color="#FFFFFF" stop-opacity="0.9"/>
    </linearGradient></defs><ellipse cx="60" cy="95" rx="58" ry="64" fill="url(#glow-s0)"/><g transform="translate(10 6) scale(1)">
       <g transform="translate(50 128) scale(0.55) translate(-50 -128)"><path d="M50 6 C 69 38, 88 60, 88 90 C 88 118, 71 134, 50 134 C 29 134, 12 118, 12 90 C 12 60, 31 38, 50 6 Z" fill="url(#body-s0)"/>
            <path d="M50 40 C 62 62, 71 74, 71 95 C 71 115, 62 123, 50 123 C 38 123, 29 115, 29 95 C 29 74, 38 62, 50 40 Z" fill="url(#core-s0)" opacity="0.85"/></g>
     </g></g>
      <text x="75" y="176" text-anchor="middle" font-family="Geist, ui-sans-serif, system-ui, sans-serif" font-size="18" font-weight="600" fill="#F5F1E8">Spark</text>
    </g><g transform="translate(150 0)">
      <g transform="translate(15 8)"><defs>
    <radialGradient id="glow-s1" cx="50%" cy="60%" r="55%">
      <stop offset="0%" stop-color="#3A86FF" stop-opacity="0.5"/>
      <stop offset="62%" stop-color="#3A86FF" stop-opacity="0"/>
    </radialGradient>
    <linearGradient id="body-s1" x1="0" y1="1" x2="0" y2="0">
      <stop offset="0%" stop-color="#3A86FF"/>
      <stop offset="55%" stop-color="#3A86FF"/>
      <stop offset="100%" stop-color="rgb(186, 213, 255)" stop-opacity="0.95"/>
    </linearGradient>
    <linearGradient id="core-s1" x1="0" y1="1" x2="0" y2="0">
      <stop offset="0%" stop-color="rgb(186, 213, 255)" stop-opacity="0.6"/>
      <stop offset="100%" stop-color="#FFFFFF" stop-opacity="0.9"/>
    </linearGradient></defs><ellipse cx="60" cy="95" rx="58" ry="64" fill="url(#glow-s1)"/><g transform="translate(10 6) scale(1)">
       <g transform="translate(50 128) scale(0.9) translate(-50 -128)"><path d="M50 6 C 69 38, 88 60, 88 90 C 88 118, 71 134, 50 134 C 29 134, 12 118, 12 90 C 12 60, 31 38, 50 6 Z" fill="url(#body-s1)"/>
            <path d="M50 40 C 62 62, 71 74, 71 95 C 71 115, 62 123, 50 123 C 38 123, 29 115, 29 95 C 29 74, 38 62, 50 40 Z" fill="url(#core-s1)" opacity="0.85"/></g>
     </g></g>
      <text x="75" y="176" text-anchor="middle" font-family="Geist, ui-sans-serif, system-ui, sans-serif" font-size="18" font-weight="600" fill="#F5F1E8">Flame</text>
    </g><g transform="translate(300 0)">
      <g transform="translate(15 8)"><defs>
    <radialGradient id="glow-s2" cx="50%" cy="60%" r="55%">
      <stop offset="0%" stop-color="#8338EC" stop-opacity="0.7"/>
      <stop offset="62%" stop-color="#8338EC" stop-opacity="0"/>
    </radialGradient>
    <linearGradient id="body-s2" x1="0" y1="1" x2="0" y2="0">
      <stop offset="0%" stop-color="#8338EC"/>
      <stop offset="55%" stop-color="#8338EC"/>
      <stop offset="100%" stop-color="rgb(212, 185, 248)" stop-opacity="0.95"/>
    </linearGradient>
    <linearGradient id="core-s2" x1="0" y1="1" x2="0" y2="0">
      <stop offset="0%" stop-color="rgb(212, 185, 248)" stop-opacity="0.6"/>
      <stop offset="100%" stop-color="#FFFFFF" stop-opacity="0.9"/>
    </linearGradient></defs><ellipse cx="60" cy="95" rx="58" ry="64" fill="url(#glow-s2)"/><g transform="translate(10 6) scale(1)">
       <g transform="translate(50 128) scale(1.12) translate(-50 -128)"><path d="M50 6 C 69 38, 88 60, 88 90 C 88 118, 71 134, 50 134 C 29 134, 12 118, 12 90 C 12 60, 31 38, 50 6 Z" fill="url(#body-s2)"/>
            <path d="M50 40 C 62 62, 71 74, 71 95 C 71 115, 62 123, 50 123 C 38 123, 29 115, 29 95 C 29 74, 38 62, 50 40 Z" fill="url(#core-s2)" opacity="0.85"/></g>
     </g></g>
      <text x="75" y="176" text-anchor="middle" font-family="Geist, ui-sans-serif, system-ui, sans-serif" font-size="18" font-weight="600" fill="#F5F1E8">Blaze</text>
    </g><g transform="translate(450 0)">
      <g transform="translate(15 8)"><defs>
    <radialGradient id="glow-s3" cx="50%" cy="60%" r="55%">
      <stop offset="0%" stop-color="#06D6A0" stop-opacity="0.9"/>
      <stop offset="62%" stop-color="#06D6A0" stop-opacity="0"/>
    </radialGradient>
    <linearGradient id="body-s3" x1="0" y1="1" x2="0" y2="0">
      <stop offset="0%" stop-color="#06D6A0"/>
      <stop offset="55%" stop-color="#06D6A0"/>
      <stop offset="100%" stop-color="rgb(168, 241, 222)" stop-opacity="0.95"/>
    </linearGradient>
    <linearGradient id="core-s3" x1="0" y1="1" x2="0" y2="0">
      <stop offset="0%" stop-color="rgb(168, 241, 222)" stop-opacity="0.6"/>
      <stop offset="100%" stop-color="#FFFFFF" stop-opacity="0.9"/>
    </linearGradient></defs><ellipse cx="60" cy="95" rx="58" ry="64" fill="url(#glow-s3)"/><g transform="translate(10 6) scale(1)">
       <g transform="translate(50 128) scale(1.28) translate(-50 -128)"><g transform="translate(-16 11.200000000000001) scale(0.72)">
         <path d="M50 6 C 69 38, 88 60, 88 90 C 88 118, 71 134, 50 134 C 29 134, 12 118, 12 90 C 12 60, 31 38, 50 6 Z" fill="url(#body-s3)" opacity="1"/>
         <path d="M50 40 C 62 62, 71 74, 71 95 C 71 115, 62 123, 50 123 C 38 123, 29 115, 29 95 C 29 74, 38 62, 50 40 Z" fill="url(#core-s3)" opacity="0.85"/>
       </g><g transform="translate(16 11.200000000000001) scale(0.72)">
         <path d="M50 6 C 69 38, 88 60, 88 90 C 88 118, 71 134, 50 134 C 29 134, 12 118, 12 90 C 12 60, 31 38, 50 6 Z" fill="url(#body-s3)" opacity="1"/>
         <path d="M50 40 C 62 62, 71 74, 71 95 C 71 115, 62 123, 50 123 C 38 123, 29 115, 29 95 C 29 74, 38 62, 50 40 Z" fill="url(#core-s3)" opacity="0.85"/>
       </g><g transform="translate(0 0) scale(1)">
         <path d="M50 6 C 69 38, 88 60, 88 90 C 88 118, 71 134, 50 134 C 29 134, 12 118, 12 90 C 12 60, 31 38, 50 6 Z" fill="url(#body-s3)" opacity="1"/>
         <path d="M50 40 C 62 62, 71 74, 71 95 C 71 115, 62 123, 50 123 C 38 123, 29 115, 29 95 C 29 74, 38 62, 50 40 Z" fill="url(#core-s3)" opacity="0.85"/>
       </g></g>
     </g></g>
      <text x="75" y="176" text-anchor="middle" font-family="Geist, ui-sans-serif, system-ui, sans-serif" font-size="18" font-weight="600" fill="#F5F1E8">Beacon</text>
    </g><g transform="translate(600 0)">
      <g transform="translate(15 8)"><defs>
    <radialGradient id="glow-s4" cx="50%" cy="60%" r="55%">
      <stop offset="0%" stop-color="#FFD60A" stop-opacity="1.15"/>
      <stop offset="62%" stop-color="#FFD60A" stop-opacity="0"/>
    </radialGradient>
    <linearGradient id="body-s4" x1="0" y1="1" x2="0" y2="0">
      <stop offset="0%" stop-color="#FFD60A"/>
      <stop offset="55%" stop-color="#FFD60A"/>
      <stop offset="100%" stop-color="rgb(255, 241, 169)" stop-opacity="0.95"/>
    </linearGradient>
    <linearGradient id="core-s4" x1="0" y1="1" x2="0" y2="0">
      <stop offset="0%" stop-color="rgb(255, 241, 169)" stop-opacity="0.6"/>
      <stop offset="100%" stop-color="#FFFFFF" stop-opacity="0.9"/>
    </linearGradient></defs><ellipse cx="60" cy="95" rx="58" ry="64" fill="url(#glow-s4)"/><g transform="translate(10 6) scale(1)">
       <g transform="translate(50 128) scale(1.4) translate(-50 -128)"><path d="M50 8 C 54 26, 58 34, 66 40 C 82 30, 96 34, 100 44 C 88 48, 78 56, 72 68 C 84 72, 92 82, 92 92 C 80 86, 68 88, 60 96 C 62 112, 56 126, 50 134 C 44 126, 38 112, 40 96 C 32 88, 20 86, 8 92 C 8 82, 16 72, 28 68 C 22 56, 12 48, 0 44 C 4 34, 18 30, 34 40 C 42 34, 46 26, 50 8 Z" fill="url(#body-s4)"/>
            <path d="M50 8 C 54 26, 58 34, 66 40 C 82 30, 96 34, 100 44 C 88 48, 78 56, 72 68 C 84 72, 92 82, 92 92 C 80 86, 68 88, 60 96 C 62 112, 56 126, 50 134 C 44 126, 38 112, 40 96 C 32 88, 20 86, 8 92 C 8 82, 16 72, 28 68 C 22 56, 12 48, 0 44 C 4 34, 18 30, 34 40 C 42 34, 46 26, 50 8 Z" fill="url(#core-s4)" transform="translate(41 48) scale(0.55)" opacity="0.5"/></g>
     </g></g>
      <text x="75" y="176" text-anchor="middle" font-family="Geist, ui-sans-serif, system-ui, sans-serif" font-size="18" font-weight="600" fill="#F5F1E8">Phoenix</text>
    </g>
</svg>
